<svg viewBox="0 0 64 64" xmlns="http://www.w3.org/2000/svg">
  <!-- Jar body -->
  <path d="M12 28 C12 22,18 18,24 18 L40 18 C46 18,52 22,52 28 L54 52 C54 58,46 62,32 62 C18 62,10 58,10 52 Z" fill="#FFF8DC" stroke="#DAA520" stroke-width="1.5"/>
  <!-- Honey fill -->
  <path d="M14 30 C14 26,20 22,26 22 L38 22 C44 22,50 26,50 30 L51 42 C51 42,42 42,32 42 C22 42,13 42,13 42 Z" fill="#FFD700" opacity="0.9"/>
  <!-- Jam fill -->
  <path d="M13 42 L51 42 L54 52 C54 58,46 62,32 62 C18 62,10 58,10 52 Z" fill="#DC143C" opacity="0.85"/>
  <!-- Lid -->
  <rect x="18" y="14" width="28" height="6" rx="2" fill="#B8860B"/>
  <rect x="18" y="14" width="28" height="3" rx="1.5" fill="#D4A843"/>
  <!-- Shiba head -->
  <ellipse cx="32" cy="32" rx="14" ry="12" fill="#E8A830"/>
  <!-- Ears -->
  <path d="M20 26 L16 14 L26 24 Z" fill="#E8A830"/>
  <path d="M21 26 L18 16 L25 24 Z" fill="#FFD89B"/>
  <path d="M44 26 L48 14 L38 24 Z" fill="#E8A830"/>
  <path d="M43 26 L46 16 L39 24 Z" fill="#FFD89B"/>
  <!-- Face white -->
  <path d="M24 30 C24 24,28 22,32 22 C36 22,40 24,40 30 L39 38 C38 40,35 42,32 42 C29 42,26 40,25 38 Z" fill="#FFFEF5"/>
  <!-- Eyes -->
  <circle cx="27" cy="30" r="2.5" fill="#2C1810"/>
  <circle cx="37" cy="30" r="2.5" fill="#2C1810"/>
  <circle cx="26.3" cy="29.3" r="1" fill="white" opacity="0.8"/>
  <circle cx="36.3" cy="29.3" r="1" fill="white" opacity="0.8"/>
  <!-- Nose -->
  <ellipse cx="32" cy="34" rx="2.5" ry="1.8" fill="#2C1810"/>
  <!-- Mouth -->
  <path d="M32 35.5 L29 38" stroke="#2C1810" stroke-width="1" fill="none" stroke-linecap="round"/>
  <path d="M32 35.5 L35 38" stroke="#2C1810" stroke-width="1" fill="none" stroke-linecap="round"/>
  <!-- Tongue -->
  <ellipse cx="34" cy="39" rx="2.5" ry="3.5" fill="#FF6B8A"/>
  <!-- Cheek blush -->
  <ellipse cx="23" cy="33" rx="3" ry="2" fill="#FF9999" opacity="0.4"/>
  <ellipse cx="41" cy="33" rx="3" ry="2" fill="#FF9999" opacity="0.4"/>
  <!-- Dipper -->
  <rect x="42" y="2" width="3" height="16" rx="1.5" fill="#C4883A" transform="rotate(15 43 10)"/>
  <ellipse cx="44" cy="4" rx="4" ry="2" fill="#B07828" transform="rotate(15 44 4)"/>
</svg>
